<svg xmlns="http://www.w3.org/2000/svg" viewBox="0 0 640 140" width="640" height="140">
  <defs><clipPath id="clipLL"><rect x="20" y="20" width="100" height="100" rx="10"></rect></clipPath></defs>
  <rect x="20" y="20" width="100" height="100" rx="10" fill="#2b2b2b"></rect>
  <g clip-path="url(#clipLL)" fill="none" stroke="#fafafa" stroke-width="7" stroke-linecap="round" transform="translate(20,20)">
  <path d="M-10 18 C 10 4, 25 32, 45 18 S 80 4, 110 18"></path>
  <path d="M-10 42 C 8 30, 28 54, 48 42 S 82 28, 110 42"></path>
  <path d="M-10 66 C 12 52, 24 78, 50 66 S 84 50, 110 66"></path>
  <path d="M-10 90 C 10 78, 30 100, 52 90 S 84 76, 110 90"></path>
</g>
  <text x="145" y="98" font-family="Archivo Black, Arial, sans-serif" font-size="72" letter-spacing="-1" fill="#2b2b2b">IUDPR</text>
</svg>